<svg id="visual" viewBox="0 0 2000 1125" width="2000" height="1125" xmlns="http://www.w3.org/2000/svg" xmlns:xlink="http://www.w3.org/1999/xlink" version="1.1"><rect x="0" y="0" width="2000" height="1125" fill="#ffffff"></rect><path d="M0 798L47.7 798.8C95.3 799.7 190.7 801.3 285.8 793C381 784.7 476 766.3 571.2 755.5C666.3 744.7 761.7 741.3 857 754.8C952.3 768.3 1047.7 798.7 1143 799.2C1238.3 799.7 1333.7 770.3 1428.8 748.2C1524 726 1619 711 1714.2 708.5C1809.3 706 1904.7 716 1952.3 721L2000 726L2000 1126L1952.3 1126C1904.7 1126 1809.3 1126 1714.2 1126C1619 1126 1524 1126 1428.8 1126C1333.7 1126 1238.3 1126 1143 1126C1047.7 1126 952.3 1126 857 1126C761.7 1126 666.3 1126 571.2 1126C476 1126 381 1126 285.8 1126C190.7 1126 95.3 1126 47.7 1126L0 1126Z" fill="#2dace3"></path><path d="M0 831L47.7 838.7C95.3 846.3 190.7 861.7 285.8 849.7C381 837.7 476 798.3 571.2 789C666.3 779.7 761.7 800.3 857 807.3C952.3 814.3 1047.7 807.7 1143 808.8C1238.3 810 1333.7 819 1428.8 832.5C1524 846 1619 864 1714.2 857.5C1809.3 851 1904.7 820 1952.3 804.5L2000 789L2000 1126L1952.3 1126C1904.7 1126 1809.3 1126 1714.2 1126C1619 1126 1524 1126 1428.8 1126C1333.7 1126 1238.3 1126 1143 1126C1047.7 1126 952.3 1126 857 1126C761.7 1126 666.3 1126 571.2 1126C476 1126 381 1126 285.8 1126C190.7 1126 95.3 1126 47.7 1126L0 1126Z" fill="#2ba7dd"></path><path d="M0 899L47.7 892C95.3 885 190.7 871 285.8 857.3C381 843.7 476 830.3 571.2 836.8C666.3 843.3 761.7 869.7 857 874C952.3 878.3 1047.7 860.7 1143 854.7C1238.3 848.7 1333.7 854.3 1428.8 867.2C1524 880 1619 900 1714.2 910.2C1809.3 920.3 1904.7 920.7 1952.3 920.8L2000 921L2000 1126L1952.3 1126C1904.7 1126 1809.3 1126 1714.2 1126C1619 1126 1524 1126 1428.8 1126C1333.7 1126 1238.3 1126 1143 1126C1047.7 1126 952.3 1126 857 1126C761.7 1126 666.3 1126 571.2 1126C476 1126 381 1126 285.8 1126C190.7 1126 95.3 1126 47.7 1126L0 1126Z" fill="#28a2d6"></path><path d="M0 912L47.7 922.3C95.3 932.7 190.7 953.3 285.8 962.8C381 972.3 476 970.7 571.2 956.8C666.3 943 761.7 917 857 913.2C952.3 909.3 1047.7 927.7 1143 930.2C1238.3 932.7 1333.7 919.3 1428.8 909C1524 898.7 1619 891.3 1714.2 902C1809.3 912.7 1904.7 941.3 1952.3 955.7L2000 970L2000 1126L1952.3 1126C1904.7 1126 1809.3 1126 1714.2 1126C1619 1126 1524 1126 1428.8 1126C1333.7 1126 1238.3 1126 1143 1126C1047.7 1126 952.3 1126 857 1126C761.7 1126 666.3 1126 571.2 1126C476 1126 381 1126 285.8 1126C190.7 1126 95.3 1126 47.7 1126L0 1126Z" fill="#269dd0"></path><path d="M0 1031L47.7 1026C95.3 1021 190.7 1011 285.8 998.2C381 985.3 476 969.7 571.2 970C666.3 970.3 761.7 986.7 857 984.7C952.3 982.7 1047.7 962.3 1143 954.2C1238.3 946 1333.7 950 1428.8 955.2C1524 960.3 1619 966.7 1714.2 966.2C1809.3 965.7 1904.7 958.3 1952.3 954.7L2000 951L2000 1126L1952.3 1126C1904.7 1126 1809.3 1126 1714.2 1126C1619 1126 1524 1126 1428.8 1126C1333.7 1126 1238.3 1126 1143 1126C1047.7 1126 952.3 1126 857 1126C761.7 1126 666.3 1126 571.2 1126C476 1126 381 1126 285.8 1126C190.7 1126 95.3 1126 47.7 1126L0 1126Z" fill="#2398ca"></path><path d="M0 1067L47.7 1056.7C95.3 1046.3 190.7 1025.7 285.8 1020.7C381 1015.7 476 1026.3 571.2 1030.3C666.3 1034.3 761.7 1031.7 857 1032.2C952.3 1032.7 1047.7 1036.3 1143 1039.5C1238.3 1042.7 1333.7 1045.3 1428.8 1052.3C1524 1059.3 1619 1070.7 1714.2 1065.5C1809.3 1060.3 1904.7 1038.7 1952.3 1027.8L2000 1017L2000 1126L1952.3 1126C1904.7 1126 1809.3 1126 1714.2 1126C1619 1126 1524 1126 1428.8 1126C1333.7 1126 1238.3 1126 1143 1126C1047.7 1126 952.3 1126 857 1126C761.7 1126 666.3 1126 571.2 1126C476 1126 381 1126 285.8 1126C190.7 1126 95.3 1126 47.7 1126L0 1126Z" fill="#2193c4"></path></svg>